<svg style="fill: currentColor;" height="1em" version="1.1" viewBox="0 0 34.811 58.336" xmlns="http://www.w3.org/2000/svg">
 <g transform="translate(-43.701 -148.27)">
  <path d="m64.111 148.27c-0.02793 4.3e-4 -0.0533 1e-3 -0.07995 3e-3l-6.6012 0.43741c-0.86229 0.057-1.5102 0.79756-1.4532 1.6599l0.04303 0.6665c0.03098 0.46953 0.26478 0.87586 0.61045 1.1392l-11.922 0.7883c-0.59649 0.0393-1.044 0.5507-1.0046 1.1472l0.16186 2.4418c0.03933 0.5965 0.5507 1.044 1.1472 1.0046l32.493-2.1486c0.5965-0.0393 1.0441-0.55229 1.0046-1.1488l-0.16022-2.4402c-0.03933-0.59648-0.55229-1.0456-1.1488-1.0062l-11.92 0.7883c0.30695-0.30633 0.48441-0.73935 0.45341-1.2081l-0.04303-0.6665c-0.05522-0.83535-0.75234-1.471-1.5798-1.458zm-15.912 10.504c-1.0329 0-1.8338 0.89677-1.7977 1.929l1.5397 44.104c0.03596 1.0323 0.89517 1.8337 1.9275 1.7977h23.785c1.0323 0.036 1.893-0.76539 1.929-1.7977l1.5397-44.104c0.03596-1.0323-0.76537-1.893-1.7977-1.929zm13.563 5.1542c0.86419 0 1.5589 0.69636 1.5589 1.5605v34.251c0 0.86418-0.69475 1.5606-1.5589 1.5606-0.86419 0-1.5606-0.69638-1.5606-1.5606v-34.251c0-0.86418 0.69637-1.5605 1.5606-1.5605zm-8.5207 0.0128c0.86366-0.031 1.5832 0.64081 1.6134 1.5045l1.1968 34.229c0.03099 0.86367-0.64242 1.5832-1.5061 1.6134-0.86367 0.031-1.5832-0.64081-1.6134-1.5045l-1.1953-34.229c-0.03098-0.86367 0.6408-1.5833 1.5045-1.6134zm17.04 0c0.86367 0.031 1.5346 0.74976 1.5045 1.6134l-1.1953 34.229c-0.03099 0.86365-0.74975 1.5346-1.6134 1.5045-0.86366-0.031-1.5346-0.74975-1.5045-1.6134l1.1953-34.229c0.03098-0.86366 0.74975-1.5346 1.6134-1.5045z" stroke-linecap="round" stroke-linejoin="round" stroke-width=".070635"/>
 </g>
</svg>
