<svg style="fill: currentColor;" height="1em" version="1.1" viewBox="0 0 109.06 58.286" xmlns="http://www.w3.org/2000/svg">
 <g transform="translate(-43.72 -148.28)">
  <path d="m83.65 201.05c6.5211-1.3382 10.387 4.5112 0.94961 4.4449-3.0579-0.0215-1.4716-0.0613-2.3414-0.12148-1.0935-0.0756-2.2034-0.67191-2.6265-2.5642-1.0408-5.7995 0.09351-11.727-0.16206-17.579-1.4794-3.9187-3.9083 3.6398-5.8262 4.9424-4.5899 6.0012-10.212 12.298-18.459 14.697-4.8157 1.923-11.509-0.72041-10.291-5.7565 1.9265-7.965 8.0382-14.66 13.899-20.868 4.3839-4.0688 9.0476-8.6368 15.486-10.204 5.6069-0.51684 9.2087 5.4158 6.5499 9.38-2.0515 1.9908 3.2441-0.48182 2.0175 2.7569 0.28718 6.5761 0.48164 14.297 0.80475 20.872zm-31.565 0.23089c8.4435-0.25662 14.147-6.5672 18.624-11.951 3.1083-4.5265 8.3028-8.824 7.5028-14.493-0.51499-6.6653-8.2002-2.2829-12.322 1.4028-6.7392 6.1632-13.328 13.046-16.124 21.262-0.47167 1.5333-0.23334 3.9712 2.3193 3.7806zm73.687-25.978c-0.4981 9.5743-8.15 17.531-16.005 23.817-3.8605 2.2475-8.0493 7.3863-13.056 5.742-1.9879-5.2571 7.795-5.2835 10.748-8.6497 7.0777-5.0232 13.44-11.983 14.11-20.071-1.0667-5.7822-10.007-1.6132-12.843 1.0904-7.748 6.3011-12.078 15.037-14.53 23.769-5.6312 4.4904-4.7455-5.293-4.7231-8.2234-0.38344-13.117-0.76575-26.242-1.7038-39.338-2.7282-3.634 3.1159-6.5561 4.2753-1.9903 1.1213 4.709 0.26395 9.6088 0.58322 14.397 0.2731 8.555-0.1412 17.205 1.3113 25.684 3.9115-8.2878 10.297-16.311 19.618-20.765 4.5864-2.9995 12.94-1.0917 12.215 4.5379zm26.006 12.722c-3.839 6.0513-9.2933 11.516-15.805 15.608-4.9062 3.2356-12.516 0.84682-13.312-4.4972-1.0949-7.231 2.4152-14.333 5.7067-20.845 3.0382-4.7077 6.2334-10.677 12.859-12.197 6.0852-0.90163 8.5125 6.2224 5.5439 9.7419-2.8317-1.3376-0.22737-8.7447-5.9757-5.5399-5.9523 3.4264-8.6663 9.5825-11.142 15.079-1.5348 4.6829-4.2757 9.9504-1.8387 14.725 3.8538 3.1571 9.4687-0.32535 12.499-2.8533 3.8508-2.9976 6.9009-6.6971 10.392-9.9073 0.50431-0.10878 1.1227 0.23075 1.073 0.68564z" stroke-width="1.4917" aria-label="abc"/>
 </g>
</svg>
