<svg style="fill: currentColor;" height="1em"   version="1.1" viewBox="0 0 109.06 58.286" xmlns="http://www.w3.org/2000/svg">
 <g transform="translate(-43.72 -148.28)">
  <path d="m55.512 148.35c-6.512 0-11.792 5.2796-11.792 11.792s11.792 30.27 11.792 30.27 11.792-23.758 11.792-30.27-5.2792-11.792-11.792-11.792zm0 17.025c-2.8901 0-5.2334-2.3437-5.2334-5.2334 0-2.8896 2.3433-5.2334 5.2334-5.2334 2.8901 0 5.2334 2.3429 5.2334 5.2334 0 2.8905-2.3428 5.2334-5.2334 5.2334z" stroke-width=".42062"/>
  <path d="m140.15 157.85c-7.0665 0-12.796 5.7291-12.796 12.796 0 7.0665 12.796 32.848 12.796 32.848s12.796-25.781 12.796-32.848c0-7.0669-5.7287-12.796-12.796-12.796zm0 18.475c-3.1361 0-5.6789-2.5432-5.6789-5.6789 0-3.1357 2.5428-5.6789 5.6789-5.6789 3.1362 0 5.6789 2.5423 5.6789 5.6789 0 3.1366-2.5423 5.6789-5.6789 5.6789z" stroke-width=".45643"/>
  <path d="m55.742 193.56c19.83 6.5921 13.024-14.297 26.065-24.395 3.7766-0.75736 8.2333 0.61124 9.8437 4.3716 2.919 5.7471 1.8588 13.239 6.6127 18.069 2.5836 1.7289 5.4367 3.2714 8.5247 3.9201 6.355 1.2699 13.447-1.2123 19.273 2.3937 3.3524 1.9029 3.57 5.5783 7.9326 5.9288 1.6153 0.31784 3.8403 0.2534 5.3948-0.31227" fill="none" stroke=var(--secondary-color) stroke-dasharray="10.13,5.065" stroke-width="5.065"/>
 </g>
</svg>
