<svg  style="fill: currentColor;" height="1em"  version="1.1" viewBox="0 0 109.06 58.286" xmlns="http://www.w3.org/2000/svg">
                                <g transform="translate(-43.72 -148.28)">
                                <g transform="matrix(.1328 0 0 .1328 38.097 111.58)">
                                <path d="m437.15 499.44m0 0-162.81-144.19-162.91 144.25v206.12c0 5.3234 4.3016 9.5938 9.625 9.5938h101.81v-90.375c0-5.3234 4.2704-9.625 9.5938-9.625h83.656c5.3234 0 9.5938 4.3016 9.5938 9.625v90.375h101.84c5.3234 0 9.5938-4.2704 9.5938-9.5938v-206.19z"/>
                                <path d="m273.39 276.34-231.05 204.58 24.338 27.457 207.66-183.88 207.61 183.88 24.291-27.457-231-204.58-0.89792 1.0397-0.94518-1.0397z"/>
                                <path d="m111.43 305.79h58.571l-0.51038 34.691-58.061 52.452v-87.143z"/>
                                </g>
                                <path d="m117.01 185.58c-0.29072 0.16306-0.53803 0.39976-0.71441 0.69875l-3.3509 5.3482c-0.20653 0.36015-0.5032 0.64269-0.86315 0.85135-0.14724 0.0854-0.31706 0.1611-0.48329 0.21373l-3.2116 1.0552c-0.69757 0.2295-1.1579 0.87014-1.1558 1.5903l2e-3 4.9792c0.0152 0.9311 0.75202 1.6863 1.6668 1.6807l4.2574-0.0202c-0.20536 0.9278-0.0699 1.8762 0.41383 2.7106 2.1528 3.7138 7.8576 1.4502 6.8955-2.7354l20.457-0.0279c-0.189 0.91831-0.0604 1.8925 0.41382 2.7106 2.1528 3.7138 7.8614 1.4573 6.8997-2.7284l2.879-9e-3c0.98282-1e-3 1.7669-0.87344 1.6458-1.8742l-0.63911-5.2269c-0.0415-0.26011-0.12633-0.51255-0.2591-0.7416-0.32245-0.55624-0.90987-0.92336-1.5576-0.98499l-10.053-0.86117c-0.53751-0.06-1.0417-0.32763-1.3822-0.76415l-4.2267-5.3765c-0.38528-0.47612-0.97498-0.77378-1.5848-0.77001l-15.088 0.0272c-0.33894-2.5e-4 -0.67181 0.0913-0.96253 0.25436zm1.6825 3.0662 5.0004-0.0147 2e-3 3.8503-7.4768-2e-3 2.4736-3.8341zm8.5588 0.0193 5.1552-0.01 3.0115 3.8042-8.1587 0.0332-8e-3 -3.8279z" stroke-width=".047187"/>
                                </g>
                            </svg>