<svg height="1em" style="fill: var(primary-color);"  version="1.1" viewBox="0 0 135.76 148.93" xmlns="http://www.w3.org/2000/svg">
 <g transform="translate(-36.72 -74.937)"stroke-linecap="round" stroke-linejoin="round">
  <path d="m83.981 75.483-2.8525 22.192c-2.2178 0.65085-4.3431 1.5151-6.3336 2.6045l-17.826-13.519-8.5826 8.5826 13.651 17.677c-1.096 1.9968-1.9587 4.132-2.6128 6.3582l-22.159 3.0427v12.13l22.142 2.8443c0.65302 2.2361 1.5225 4.3778 2.621 6.3831l-13.486 17.785 8.5826 8.5826 17.636-13.626c2.0082 1.1026 4.151 1.9821 6.3913 2.6376l3.0427 22.109h12.138l2.8361-22.118c2.2406-0.6568 4.3831-1.5334 6.3913-2.6376l17.777 13.477 8.5826-8.5826-13.626-17.653c1.0945-2.0022 1.9622-4.1428 2.6128-6.3749l22.142-3.0427v-12.138l-22.159-2.8443c-0.6546-2.2219-1.5345-4.3487-2.6293-6.3418l13.51-17.818-8.5826-8.5826-17.694 13.659c-1.9905-1.088-4.1156-1.9467-6.3336-2.5962l-3.0509-22.192h-12.13zm22.937 52.893c0 9.252-7.5089 16.761-16.761 16.761-9.252 0-16.761-7.5089-16.761-16.761 0-9.252 7.5089-16.761 16.761-16.761 9.252 0 16.761 7.5089 16.761 16.761z" stroke-width="1.0914"/>
  <path d="m131.71 156.94-0.57348 14.128c-1.3603 0.53185-2.6506 1.193-3.8437 1.9884l-11.967-7.5285-4.9301 5.8755 9.5673 10.377c-0.57996 1.3174-1.0055 2.7091-1.2946 4.1466l-13.782 3.1359 0.66805 7.6358 14.096 0.57103c0.53426 1.3717 1.1996 2.6721 2.0016 3.8739l-7.51 11.939 5.8755 4.9301 10.352-9.5494c1.325 0.58355 2.7224 1.0192 4.1688 1.3084l3.1332 13.751 7.6411-0.66851 0.56719-14.08c1.3743-0.53687 2.6749-1.2068 3.8782-2.0124l11.933 7.5052 4.9301-5.8755-9.5504-10.362c0.57874-1.3208 1.0071-2.716 1.2937-4.1571l13.772-3.135-0.66851-7.6411-14.106-0.57013c-0.53447-1.3627-1.2055-2.6533-2.0045-3.8476l7.5237-11.961-5.8755-4.9301-10.387 9.5735c-1.313-0.57533-2.6982-0.99882-4.1301-1.2856l-3.143-13.803-7.6358 0.66805zm17.353 32.034c0.50955 5.8242-3.8039 10.965-9.6281 11.474-5.8242 0.50956-10.965-3.8039-11.474-9.6281-0.50955-5.8243 3.8039-10.965 9.6281-11.474s10.965 3.8039 11.474 9.6281z" stroke-width=".68977"/>
 </g>
</svg>
