<?xml version='1.0' encoding='utf-8'?>
<svg xmlns="http://www.w3.org/2000/svg" width="6.507mm" height="9.808mm" version="1.1" viewBox="0 0 6.507 9.808"> <path d="m2.446 0c-0.27449 0-0.50181 0.22779-0.50181 0.50233v0.17003h-1.2274c-0.38888 1.519e-5 -0.70672 0.30996-0.7168 0.69871 0 0.112 0.088617 0.19897 0.20103 0.19897h6.1049c0.11212 0 0.19929-0.086872 0.20103-0.19845-0.0098511-0.38608-0.32289-0.695-0.70905-0.69923h-1.2346v-0.17003c0-0.27454-0.22724-0.50233-0.50181-0.50233zm-0.00672 0.37158c0.0023-1.0692e-4 0.00437 0 0.00672 0h1.6155c0.07505 0 0.13023 0.055824 0.13023 0.13075v0.17003h-1.876v-0.17003c0-0.072629 0.052178-0.12744 0.12351-0.13075zm-1.4527 1.6186c-0.46887 0.037112-0.84651 0.41452-0.88476 0.88321l-0.0020673 0.028941 0.28682 5.6863v0.00775c0.056086 0.70917 0.65602 1.2615 1.3674 1.2615h3.016c0.70999-0.0078851 1.3034-0.5651 1.3535-1.2734v-0.00568l0.2832-5.6176v-0.011886c0-0.51193-0.40947-0.93363-0.91422-0.95918h-4.4884zm0.070284 0.89871h4.3907c0.035327 0.0018 0.0569 0.02483 0.058398 0.058398l-0.28114 5.5726c-0.01763 0.24906-0.21488 0.43702-0.4646 0.43979h-3.0062c-0.24917-1.56e-5 -0.44756-0.18589-0.46874-0.43359l-0.28321-5.5824c0.00499-0.029408 0.02401-0.052345 0.05478-0.054781zm1.3297 0.65582c-0.20035 0-0.36124 0.091661-0.36124 0.20569v4.3478c0 0.11402 0.16089 0.20569 0.36124 0.20569 0.20025 0 0.36124-0.091661 0.36124-0.20569v-4.3478c0-0.11402-0.161-0.20569-0.36124-0.20569zm1.7339 0c-0.20035 0-0.36124 0.091661-0.36124 0.20569v4.3478c0 0.11402 0.16089 0.20569 0.36124 0.20569 0.20025 0 0.36124-0.091661 0.36124-0.20569v-4.3478c0-0.11402-0.161-0.20569-0.36124-0.20569z"/> </svg>