<?xml version='1.0' encoding='utf-8'?>
<svg xmlns="http://www.w3.org/2000/svg" width="9.807mm" height="9.808mm" version="1.1" viewBox="0 0 9.807 9.808"> <defs> <style type="text/css">.fil0 {fill:black}</style> <style type="text/css">.fil0 {fill:black}</style> <style type="text/css">.fil0 {fill:black}</style> <style type="text/css">.fil0 {fill:black}</style> <style type="text/css"> .str0 {stroke:#2B2A29;stroke-width:23.67;stroke-miterlimit:22.9256} .fil4 {fill:none} .fil0 {fill:#2B2A29} .fil1 {fill:black} .fil2 {fill:#2B2A29;fill-rule:nonzero} .fil3 {fill:#2B2A29;fill-rule:nonzero} </style> <style type="text/css">.fil0 {fill:black}</style> <linearGradient id="a" x1="566.62" x2="438.01" y1="713.54" y2="759.9" gradientTransform="matrix(1 .0331 0 1 0 -144.51)" gradientUnits="userSpaceOnUse"> <stop stop-color="#fff" offset="0"/> <stop stop-color="#E3F4FC" offset="1"/> </linearGradient> <style type="text/css">.fil0 {fill:black}</style> <style type="text/css">.fil0 {fill:black}</style> <style type="text/css">.fil0 {fill:black}</style> <style type="text/css"> .str0 {stroke:#2B2A29;stroke-width:23.67;stroke-miterlimit:22.9256} .fil4 {fill:none} .fil0 {fill:#2B2A29} .fil1 {fill:black} .fil2 {fill:#2B2A29;fill-rule:nonzero} .fil3 {fill:#2B2A29;fill-rule:nonzero} </style> <style type="text/css">.fil0 {fill:black}</style> <style type="text/css">.fil0 {fill:black}</style> <style type="text/css">.fil0 {fill:black}</style> <style type="text/css">.fil0 {fill:black}</style> <style type="text/css">.fil0 {fill:black}</style> <style type="text/css"> .str0 {stroke:#2B2A29;stroke-width:23.67;stroke-miterlimit:22.9256} .fil4 {fill:none} .fil0 {fill:#2B2A29} .fil1 {fill:black} .fil2 {fill:#2B2A29;fill-rule:nonzero} .fil3 {fill:#2B2A29;fill-rule:nonzero} </style> <style type="text/css">.fil0 {fill:black}</style> <style type="text/css">.fil0 {fill:black}</style> <style type="text/css">.fil0 {fill:black}</style> <style type="text/css">.fil0 {fill:black}</style> <style type="text/css"> .str0 {stroke:#2B2A29;stroke-width:23.67;stroke-miterlimit:22.9256} .fil4 {fill:none} .fil0 {fill:#2B2A29} .fil1 {fill:black} .fil2 {fill:#2B2A29;fill-rule:nonzero} .fil3 {fill:#2B2A29;fill-rule:nonzero} </style> <style type="text/css">.fil0 {fill:black}</style> </defs> <g transform="matrix(1.6764 0 0 1.6764 1779.2 -1122.3)"> <g transform="matrix(.11032 0 0 .11032 -1085.4 654.98)"/> <g transform="matrix(.078917 0 0 .078917 -1272.2 518.31)"/> <g transform="matrix(.059147 0 0 .059143 -1061.3 632.87)" fill-rule="evenodd"> <g transform="matrix(4.1926 0 0 4.1929 -99.569 562.94)"> <g transform="matrix(.070195 0 0 .070195 2.1297 -35.931)" fill-rule="evenodd"> <g transform="matrix(16.586 0 0 16.586 1232 555.86)"> <g fill="none" stroke="#333" stroke-width=".22581" aria-label="€"/> <g transform="matrix(2.0265 0 0 2.0265 -69.236 .56058)"> <g transform="matrix(.7632 0 0 .7632 3.7094 1.6067)"> <g transform="translate(.78538 .15774)"/> <g transform="matrix(.81119 0 0 .81119 23.328 1.1847)"> <g transform="matrix(1.0791 0 0 1.0791 1.4939 -.52708)"> <g transform="matrix(.7484 0 0 .7484 -23.819 2.819)"> <g transform="matrix(.26458 0 0 .26458 -786.97 -516.43)"> <g transform="translate(281.26 22.586)"/> </g> </g> </g> </g> </g> </g> </g> <g transform="matrix(1.7552 0 0 1.7552 644.5 -261.38)"> <path transform="matrix(5.0666 0 0 5.0666 -192.65 548.79)" d="m18.898 0c-0.37839 0-0.68554 0.3052-0.68555 0.68359v3.8574a14.463 14.463 3.1487e-7 0 1 0.68555-0.10742 14.463 14.463 3.1487e-7 0 1 0.68164 0.042969v-3.793c0-0.37839-0.30325-0.68359-0.68164-0.68359zm-6.8086 1.2695c-0.35298 0.13633-0.5288 0.52988-0.39258 0.88281l1.416 3.668a14.463 14.463 3.1487e-7 0 1 1.2734-0.49805l-1.416-3.6621c-0.068173-0.17649-0.20006-0.30801-0.35938-0.37891-0.15932-0.070891-0.34499-0.079892-0.52148-0.011719zm13.871 0.31055c-0.16298 0.063642-0.30099 0.18804-0.37695 0.36133l-1.5488 3.5332a14.463 14.463 3.1487e-7 0 1 0.66797 0.17773 14.463 14.463 3.1487e-7 0 1 0.60938 0.31055l1.5215-3.4727c0.15191-0.34656-3e-3 -0.74848-0.34961-0.90039-0.17328-0.075954-0.36046-0.073408-0.52344-0.00977zm-19.893 3.707c-0.17437-9.869e-4 -0.34814 0.063982-0.48242 0.19727-0.26855 0.26657-0.27244 0.7002-0.0058594 0.96875l2.7715 2.7891a14.463 14.463 3.1487e-7 0 1 0.96484-0.9668l-2.7656-2.7852c-0.1333-0.13428-0.30805-0.20215-0.48242-0.20312zm25.758 0.095703c-0.17437-9.868e-4 -0.34815 0.06398-0.48242 0.19727l-2.6836 2.6621a14.463 14.463 3.1487e-7 0 1 0.96484 0.9668l2.6797-2.6582c0.26855-0.26657 0.27048-0.69629 0.003906-0.96484-0.13328-0.13428-0.30806-0.20215-0.48242-0.20312zm-12.926 1.7441c-6.4913 0-11.766 5.2738-11.766 11.766 0 6.4918 5.2743 11.768 11.766 11.768s11.766-5.2757 11.766-11.768c0-6.4918-5.2743-11.766-11.766-11.766zm0 1.1328c5.8785 0 10.633 4.7537 10.633 10.633 0 5.8791-4.7543 10.633-10.633 10.633s-10.631-4.7537-10.631-10.633c1e-7 -5.8791 4.7524-10.633 10.631-10.633zm-16.934 2.6875c-0.16242 0.06389-0.301 0.19-0.37695 0.36328-0.15191 0.34656 0.00305 0.74653 0.34961 0.89844l3.5371 1.5508a14.463 14.463 3.1487e-7 0 1 0.17383-0.66797 14.463 14.463 3.1487e-7 0 1 0.37305-0.58398l-3.5352-1.5488c-0.17328-0.075956-0.35906-0.075607-0.52148-0.011718zm33.676 0.75-3.5254 1.3613a14.463 14.463 3.1487e-7 0 1 0.49609 1.2715l3.5215-1.3574c0.35298-0.13633 0.52496-0.52985 0.38867-0.88281-0.06817-0.17649-0.20007-0.30801-0.35938-0.37891-0.15932-0.07089-0.345-0.08185-0.52148-0.01367zm-20.66 0.84375c-0.84904 7.89e-4 -1.3461 1.0467-0.83008 1.7148l2.4727 3.1953h-0.7813c-0.45014 1.91e-4 -0.82626 0.29815-0.97266 0.66016-0.1464 0.362-0.08687 0.83204 0.22852 1.1504h2e-3l5.6484 5.6875c0.36833 0.37185 0.9549 0.38254 1.3242 0.13672 0.36932-0.24582 0.5877-0.77776 0.40234-1.2656l-1.0977-2.8906 1.3984 0.03125c0.76568 0.01814 1.297-0.81988 0.97852-1.5098l-2.9043-6.2969c-0.17083-0.36927-0.54288-0.61331-0.95312-0.61328zm0.10742 1.1094 4.7695 2e-3 2.8594 6.1973-2.9629-0.06836 1.5957 4.1992-5.3848-5.4199h2.918zm-14.408 4.5625c-0.37839 0-0.68164 0.30715-0.68164 0.68555 0 0.37839 0.30325 0.68164 0.68164 0.68164h3.8594a14.463 14.463 3.1487e-7 0 1-0.10742-0.68164 14.463 14.463 3.1487e-7 0 1 0.10742-0.68555zm32.635 0a14.463 14.463 3.1487e-7 0 1 0.04297 0.68555 14.463 14.463 3.1487e-7 0 1-0.10742 0.68164h3.8594c0.37839 0 0.68164-0.30325 0.68164-0.68164 0-0.37839-0.30325-0.68554-0.68164-0.68555zm-27.994 5.1934-3.6602 1.416c-0.35298 0.13633-0.53075 0.53183-0.39453 0.88476 0.13634 0.35298 0.52986 0.52496 0.88281 0.38867l3.668-1.418a14.463 14.463 3.1487e-7 0 1-0.49609-1.2715zm27.057 0.6543a14.463 14.463 3.1487e-7 0 1-0.23633 0.64258 14.463 14.463 3.1487e-7 0 1-0.37305 0.58203l3.5352 1.5488c0.34656 0.15191 0.74653-3e-3 0.89844-0.34961 0.15191-0.34656-3e-3 -0.74848-0.34961-0.90039zm-24.104 4.416-2.7852 2.7656c-0.26855 0.26657-0.27242 0.7002-0.00586 0.96875 0.26657 0.26855 0.69629 0.26854 0.96484 2e-3l2.791-2.7715a14.463 14.463 3.1487e-7 0 1-0.96484-0.96484zm21.166 0.07617a14.463 14.463 3.1487e-7 0 1-0.96484 0.96484l2.7656 2.7871c0.26658 0.26855 0.6963 0.27049 0.96484 0.0039 0.26856-0.26657 0.27244-0.69629 0.0059-0.96484zm-16.934 3.2188-1.5488 3.5332c-0.15191 0.34656 5e-3 0.74848 0.35156 0.90039 0.34656 0.15191 0.74653-5e-3 0.89844-0.35156l1.5488-3.5332a14.463 14.463 3.1487e-7 0 1-0.66602-0.17578 14.463 14.463 3.1487e-7 0 1-0.58398-0.37305zm12.172 0.20312a14.463 14.463 3.1487e-7 0 1-1.2715 0.49609l1.4141 3.6641c0.13634 0.35298 0.52987 0.52496 0.88281 0.38867 0.35299-0.13633 0.52686-0.52792 0.39062-0.88086zm-6.4668 1.2793v3.8574c0 0.37839 0.30715 0.68359 0.68555 0.68359 0.37839 0 0.68164-0.3052 0.68164-0.68359v-3.8574a14.463 14.463 3.1487e-7 0 1-0.68164 0.10742 14.463 14.463 3.1487e-7 0 1-0.68555-0.10742z" style="paint-order:markers fill stroke"/> </g> </g> </g> </g> </g> <style type="text/css">.st0{fill:#F9DF84;} .st1{fill:#2EAAE2;} .st2{opacity:0.51;} .st3{fill:#2C91AC;} .st4{fill:#C5CF83;} .st5{fill:#B0B573;} .st6{fill:#FFFFFF;} .st7{fill:#D9D9D9;} .st8{opacity:0.7;fill:#575756;} .st9{opacity:0.35;fill:url(#a);} .st10{opacity:0.65;fill:#575756;} .st11{fill:#ECECEC;} .st12{fill:#B1B1B1;} .st13{opacity:0.56;fill:#D9D9D9;}</style> <style type="text/css">.st0{fill:#F9DF84;} .st1{fill:#2EAAE2;} .st2{opacity:0.51;} .st3{fill:#2C91AC;} .st4{fill:#C5CF83;} .st5{fill:#B0B573;} .st6{fill:#FFFFFF;} .st7{fill:#D9D9D9;} .st8{opacity:0.7;fill:#575756;} .st9{opacity:0.35;fill:url(#a);} .st10{opacity:0.65;fill:#575756;} .st11{fill:#ECECEC;} .st12{fill:#B1B1B1;} .st13{opacity:0.56;fill:#D9D9D9;}</style> <style type="text/css">.st0{fill:#F9DF84;} .st1{fill:#2EAAE2;} .st2{opacity:0.51;} .st3{fill:#2C91AC;} .st4{fill:#C5CF83;} .st5{fill:#B0B573;} .st6{fill:#FFFFFF;} .st7{fill:#D9D9D9;} .st8{opacity:0.7;fill:#575756;} .st9{opacity:0.35;fill:url(#a);} .st10{opacity:0.65;fill:#575756;} .st11{fill:#ECECEC;} .st12{fill:#B1B1B1;} .st13{opacity:0.56;fill:#D9D9D9;}</style> <style type="text/css">.st0{fill:#F9DF84;} .st1{fill:#2EAAE2;} .st2{opacity:0.51;} .st3{fill:#2C91AC;} .st4{fill:#C5CF83;} .st5{fill:#B0B573;} .st6{fill:#FFFFFF;} .st7{fill:#D9D9D9;} .st8{opacity:0.7;fill:#575756;} .st9{opacity:0.35;fill:url(#a);} .st10{opacity:0.65;fill:#575756;} .st11{fill:#ECECEC;} .st12{fill:#B1B1B1;} .st13{opacity:0.56;fill:#D9D9D9;}</style> <style type="text/css">.st0{fill:#F9DF84;} .st1{fill:#2EAAE2;} .st2{opacity:0.51;} .st3{fill:#2C91AC;} .st4{fill:#C5CF83;} .st5{fill:#B0B573;} .st6{fill:#FFFFFF;} .st7{fill:#D9D9D9;} .st8{opacity:0.7;fill:#575756;} .st9{opacity:0.35;fill:url(#a);} .st10{opacity:0.65;fill:#575756;} .st11{fill:#ECECEC;} .st12{fill:#B1B1B1;} .st13{opacity:0.56;fill:#D9D9D9;}</style> <style type="text/css">.st0{fill:#F9DF84;} .st1{fill:#2EAAE2;} .st2{opacity:0.51;} .st3{fill:#2C91AC;} .st4{fill:#C5CF83;} .st5{fill:#B0B573;} .st6{fill:#FFFFFF;} .st7{fill:#D9D9D9;} .st8{opacity:0.7;fill:#575756;} .st9{opacity:0.35;fill:url(#a);} .st10{opacity:0.65;fill:#575756;} .st11{fill:#ECECEC;} .st12{fill:#B1B1B1;} .st13{opacity:0.56;fill:#D9D9D9;}</style> <style type="text/css">.st0{fill:#F9DF84;} .st1{fill:#2EAAE2;} .st2{opacity:0.51;} .st3{fill:#2C91AC;} .st4{fill:#C5CF83;} .st5{fill:#B0B573;} .st6{fill:#FFFFFF;} .st7{fill:#D9D9D9;} .st8{opacity:0.7;fill:#575756;} .st9{opacity:0.35;fill:url(#a);} .st10{opacity:0.65;fill:#575756;} .st11{fill:#ECECEC;} .st12{fill:#B1B1B1;} .st13{opacity:0.56;fill:#D9D9D9;}</style> <style type="text/css">.st0{fill:#F9DF84;} .st1{fill:#2EAAE2;} .st2{opacity:0.51;} .st3{fill:#2C91AC;} .st4{fill:#C5CF83;} .st5{fill:#B0B573;} .st6{fill:#FFFFFF;} .st7{fill:#D9D9D9;} .st8{opacity:0.7;fill:#575756;} .st9{opacity:0.35;fill:url(#a);} .st10{opacity:0.65;fill:#575756;} .st11{fill:#ECECEC;} .st12{fill:#B1B1B1;} .st13{opacity:0.56;fill:#D9D9D9;}</style> <style type="text/css">.st0{fill:#F9DF84;} .st1{fill:#2EAAE2;} .st2{opacity:0.51;} .st3{fill:#2C91AC;} .st4{fill:#C5CF83;} .st5{fill:#B0B573;} .st6{fill:#FFFFFF;} .st7{fill:#D9D9D9;} .st8{opacity:0.7;fill:#575756;} .st9{opacity:0.35;fill:url(#a);} .st10{opacity:0.65;fill:#575756;} .st11{fill:#ECECEC;} .st12{fill:#B1B1B1;} .st13{opacity:0.56;fill:#D9D9D9;}</style> <style type="text/css">.st0{fill:#00BFBA;} .st1{opacity:0.14;fill:#2B41E3;} .st2{opacity:0.28;} .st3{fill:#FFFFFF;} .st4{fill:#292685;} .st5{fill-rule:evenodd;clip-rule:evenodd;fill:#E6EEFF;} .st6{fill-rule:evenodd;clip-rule:evenodd;fill:#3071FF;} .st7{fill-rule:evenodd;clip-rule:evenodd;fill:#CFDEFF;} .st8{fill-rule:evenodd;clip-rule:evenodd;fill:#FFFFFF;} .st9{fill-rule:evenodd;clip-rule:evenodd;fill:#2A63E0;} .st10{fill-rule:evenodd;clip-rule:evenodd;fill:#F5B8B0;} .st11{fill:#F5F6F7;} .st12{fill:#FF85FF;} .st13{fill:#FF65FF;} .st14{fill:#F6F3EE;} .st15{fill:#013AD6;} .st16{fill-rule:evenodd;clip-rule:evenodd;fill:#142585;} .st17{fill-rule:evenodd;clip-rule:evenodd;fill:#E09F98;} .st18{fill:#142585;} .st19{fill:#FBFBFF;} .st20{fill:#0145FF;} .st21{opacity:0.32;} .st22{opacity:0.24;} .st23{fill:none;stroke:#FFFFFF;stroke-width:0.9459;stroke-linecap:round;stroke-linejoin:round;stroke-miterlimit:10;} .st24{opacity:0.28;fill:#FFFFFF;} .st25{opacity:0.29;fill:#2D69ED;} .st26{opacity:0.25;fill:#D6E3FF;} .st27{fill:#3075FF;} .st28{fill:#1D59DE;} .st29{fill:#A1BFFF;} .st30{fill:#F0F5FF;} .st31{fill:#3071FF;} .st32{fill:#C2D5FF;} .st33{fill:#548CFF;} .st34{fill:#2C67DE;} .st35{fill:#82AAFF;} .st36{fill:#275ACF;} .st37{fill:#D9E5FF;} .st38{fill:#BA4ABA;} .st39{fill:#BDD1FF;} .st40{fill:none;stroke:#292685;stroke-linecap:round;stroke-linejoin:round;stroke-miterlimit:10;} .st41{fill:#FFFFFF;stroke:#FFFFFF;stroke-width:1.4852;stroke-miterlimit:10;} .st42{fill:#ADC7FF;} .st43{fill:none;stroke:#FFFFFF;stroke-width:0.6164;stroke-linecap:round;stroke-linejoin:round;stroke-miterlimit:10;} .st44{fill:none;stroke:#FFFFFF;stroke-width:0.5688;stroke-linecap:round;stroke-linejoin:round;stroke-miterlimit:10;} .st45{opacity:0.33;fill:#2555C4;} .st46{fill:url(#a);} .st47{fill:#D6E3FF;} .st48{fill:none;stroke:#BFD3FF;stroke-width:1.0825;stroke-miterlimit:10;} .st49{fill:#E6EDFF;} .st50{fill-rule:evenodd;clip-rule:evenodd;fill:#82AAFF;} .st51{fill:#F0F0F0;}</style> <style type="text/css">.st0{fill:#00BFBA;} .st1{opacity:0.14;fill:#2B41E3;} .st2{opacity:0.28;} .st3{fill:#FFFFFF;} .st4{fill:#292685;} .st5{fill-rule:evenodd;clip-rule:evenodd;fill:#E6EEFF;} .st6{fill-rule:evenodd;clip-rule:evenodd;fill:#3071FF;} .st7{fill-rule:evenodd;clip-rule:evenodd;fill:#CFDEFF;} .st8{fill-rule:evenodd;clip-rule:evenodd;fill:#FFFFFF;} .st9{fill-rule:evenodd;clip-rule:evenodd;fill:#2A63E0;} .st10{fill-rule:evenodd;clip-rule:evenodd;fill:#F5B8B0;} .st11{fill:#F5F6F7;} .st12{fill:#FF85FF;} .st13{fill:#FF65FF;} .st14{fill:#F6F3EE;} .st15{fill:#013AD6;} .st16{fill-rule:evenodd;clip-rule:evenodd;fill:#142585;} .st17{fill-rule:evenodd;clip-rule:evenodd;fill:#E09F98;} .st18{fill:#142585;} .st19{fill:#FBFBFF;} .st20{fill:#0145FF;} .st21{opacity:0.32;} .st22{opacity:0.24;} .st23{fill:none;stroke:#FFFFFF;stroke-width:0.9459;stroke-linecap:round;stroke-linejoin:round;stroke-miterlimit:10;} .st24{opacity:0.28;fill:#FFFFFF;} .st25{opacity:0.29;fill:#2D69ED;} .st26{opacity:0.25;fill:#D6E3FF;} .st27{fill:#3075FF;} .st28{fill:#1D59DE;} .st29{fill:#A1BFFF;} .st30{fill:#F0F5FF;} .st31{fill:#3071FF;} .st32{fill:#C2D5FF;} .st33{fill:#548CFF;} .st34{fill:#2C67DE;} .st35{fill:#82AAFF;} .st36{fill:#275ACF;} .st37{fill:#D9E5FF;} .st38{fill:#BA4ABA;} .st39{fill:#BDD1FF;} .st40{fill:none;stroke:#292685;stroke-linecap:round;stroke-linejoin:round;stroke-miterlimit:10;} .st41{fill:#FFFFFF;stroke:#FFFFFF;stroke-width:1.4852;stroke-miterlimit:10;} .st42{fill:#ADC7FF;} .st43{fill:none;stroke:#FFFFFF;stroke-width:0.6164;stroke-linecap:round;stroke-linejoin:round;stroke-miterlimit:10;} .st44{fill:none;stroke:#FFFFFF;stroke-width:0.5688;stroke-linecap:round;stroke-linejoin:round;stroke-miterlimit:10;} .st45{opacity:0.33;fill:#2555C4;} .st46{fill:url(#a);} .st47{fill:#D6E3FF;} .st48{fill:none;stroke:#BFD3FF;stroke-width:1.0825;stroke-miterlimit:10;} .st49{fill:#E6EDFF;} .st50{fill-rule:evenodd;clip-rule:evenodd;fill:#82AAFF;} .st51{fill:#F0F0F0;}</style> <style type="text/css">.st0{fill:#00BFBA;} .st1{opacity:0.14;fill:#2B41E3;} .st2{opacity:0.28;} .st3{fill:#FFFFFF;} .st4{fill:#292685;} .st5{fill-rule:evenodd;clip-rule:evenodd;fill:#E6EEFF;} .st6{fill-rule:evenodd;clip-rule:evenodd;fill:#3071FF;} .st7{fill-rule:evenodd;clip-rule:evenodd;fill:#CFDEFF;} .st8{fill-rule:evenodd;clip-rule:evenodd;fill:#FFFFFF;} .st9{fill-rule:evenodd;clip-rule:evenodd;fill:#2A63E0;} .st10{fill-rule:evenodd;clip-rule:evenodd;fill:#F5B8B0;} .st11{fill:#F5F6F7;} .st12{fill:#FF85FF;} .st13{fill:#FF65FF;} .st14{fill:#F6F3EE;} .st15{fill:#013AD6;} .st16{fill-rule:evenodd;clip-rule:evenodd;fill:#142585;} .st17{fill-rule:evenodd;clip-rule:evenodd;fill:#E09F98;} .st18{fill:#142585;} .st19{fill:#FBFBFF;} .st20{fill:#0145FF;} .st21{opacity:0.32;} .st22{opacity:0.24;} .st23{fill:none;stroke:#FFFFFF;stroke-width:0.9459;stroke-linecap:round;stroke-linejoin:round;stroke-miterlimit:10;} .st24{opacity:0.28;fill:#FFFFFF;} .st25{opacity:0.29;fill:#2D69ED;} .st26{opacity:0.25;fill:#D6E3FF;} .st27{fill:#3075FF;} .st28{fill:#1D59DE;} .st29{fill:#A1BFFF;} .st30{fill:#F0F5FF;} .st31{fill:#3071FF;} .st32{fill:#C2D5FF;} .st33{fill:#548CFF;} .st34{fill:#2C67DE;} .st35{fill:#82AAFF;} .st36{fill:#275ACF;} .st37{fill:#D9E5FF;} .st38{fill:#BA4ABA;} .st39{fill:#BDD1FF;} .st40{fill:none;stroke:#292685;stroke-linecap:round;stroke-linejoin:round;stroke-miterlimit:10;} .st41{fill:#FFFFFF;stroke:#FFFFFF;stroke-width:1.4852;stroke-miterlimit:10;} .st42{fill:#ADC7FF;} .st43{fill:none;stroke:#FFFFFF;stroke-width:0.6164;stroke-linecap:round;stroke-linejoin:round;stroke-miterlimit:10;} .st44{fill:none;stroke:#FFFFFF;stroke-width:0.5688;stroke-linecap:round;stroke-linejoin:round;stroke-miterlimit:10;} .st45{opacity:0.33;fill:#2555C4;} .st46{fill:url(#a);} .st47{fill:#D6E3FF;} .st48{fill:none;stroke:#BFD3FF;stroke-width:1.0825;stroke-miterlimit:10;} .st49{fill:#E6EDFF;} .st50{fill-rule:evenodd;clip-rule:evenodd;fill:#82AAFF;} .st51{fill:#F0F0F0;}</style> <style type="text/css">.st0{fill:#F9DF84;} .st1{fill:#2EAAE2;} .st2{opacity:0.51;} .st3{fill:#2C91AC;} .st4{fill:#C5CF83;} .st5{fill:#B0B573;} .st6{fill:#FFFFFF;} .st7{fill:#D9D9D9;} .st8{opacity:0.7;fill:#575756;} .st9{opacity:0.35;fill:url(#a);} .st10{opacity:0.65;fill:#575756;} .st11{fill:#ECECEC;} .st12{fill:#B1B1B1;} .st13{opacity:0.56;fill:#D9D9D9;}</style> <style type="text/css">.st0{fill:#F9DF84;} .st1{fill:#2EAAE2;} .st2{opacity:0.51;} .st3{fill:#2C91AC;} .st4{fill:#C5CF83;} .st5{fill:#B0B573;} .st6{fill:#FFFFFF;} .st7{fill:#D9D9D9;} .st8{opacity:0.7;fill:#575756;} .st9{opacity:0.35;fill:url(#a);} .st10{opacity:0.65;fill:#575756;} .st11{fill:#ECECEC;} .st12{fill:#B1B1B1;} .st13{opacity:0.56;fill:#D9D9D9;}</style> <style type="text/css">.st0{fill:#F9DF84;} .st1{fill:#2EAAE2;} .st2{opacity:0.51;} .st3{fill:#2C91AC;} .st4{fill:#C5CF83;} .st5{fill:#B0B573;} .st6{fill:#FFFFFF;} .st7{fill:#D9D9D9;} .st8{opacity:0.7;fill:#575756;} .st9{opacity:0.35;fill:url(#a);} .st10{opacity:0.65;fill:#575756;} .st11{fill:#ECECEC;} .st12{fill:#B1B1B1;} .st13{opacity:0.56;fill:#D9D9D9;}</style> <style type="text/css">.st0{fill:#F9DF84;} .st1{fill:#2EAAE2;} .st2{opacity:0.51;} .st3{fill:#2C91AC;} .st4{fill:#C5CF83;} .st5{fill:#B0B573;} .st6{fill:#FFFFFF;} .st7{fill:#D9D9D9;} .st8{opacity:0.7;fill:#575756;} .st9{opacity:0.35;fill:url(#a);} .st10{opacity:0.65;fill:#575756;} .st11{fill:#ECECEC;} .st12{fill:#B1B1B1;} .st13{opacity:0.56;fill:#D9D9D9;}</style> <style type="text/css">.st0{fill:#F9DF84;} .st1{fill:#2EAAE2;} .st2{opacity:0.51;} .st3{fill:#2C91AC;} .st4{fill:#C5CF83;} .st5{fill:#B0B573;} .st6{fill:#FFFFFF;} .st7{fill:#D9D9D9;} .st8{opacity:0.7;fill:#575756;} .st9{opacity:0.35;fill:url(#a);} .st10{opacity:0.65;fill:#575756;} .st11{fill:#ECECEC;} .st12{fill:#B1B1B1;} .st13{opacity:0.56;fill:#D9D9D9;}</style> <style type="text/css">.st0{fill:#F9DF84;} .st1{fill:#2EAAE2;} .st2{opacity:0.51;} .st3{fill:#2C91AC;} .st4{fill:#C5CF83;} .st5{fill:#B0B573;} .st6{fill:#FFFFFF;} .st7{fill:#D9D9D9;} .st8{opacity:0.7;fill:#575756;} .st9{opacity:0.35;fill:url(#a);} .st10{opacity:0.65;fill:#575756;} .st11{fill:#ECECEC;} .st12{fill:#B1B1B1;} .st13{opacity:0.56;fill:#D9D9D9;}</style> <style type="text/css">.st0{fill:#F9DF84;} .st1{fill:#2EAAE2;} .st2{opacity:0.51;} .st3{fill:#2C91AC;} .st4{fill:#C5CF83;} .st5{fill:#B0B573;} .st6{fill:#FFFFFF;} .st7{fill:#D9D9D9;} .st8{opacity:0.7;fill:#575756;} .st9{opacity:0.35;fill:url(#a);} .st10{opacity:0.65;fill:#575756;} .st11{fill:#ECECEC;} .st12{fill:#B1B1B1;} .st13{opacity:0.56;fill:#D9D9D9;}</style> <style type="text/css">.st0{fill:#F9DF84;} .st1{fill:#2EAAE2;} .st2{opacity:0.51;} .st3{fill:#2C91AC;} .st4{fill:#C5CF83;} .st5{fill:#B0B573;} .st6{fill:#FFFFFF;} .st7{fill:#D9D9D9;} .st8{opacity:0.7;fill:#575756;} .st9{opacity:0.35;fill:url(#a);} .st10{opacity:0.65;fill:#575756;} .st11{fill:#ECECEC;} .st12{fill:#B1B1B1;} .st13{opacity:0.56;fill:#D9D9D9;}</style> <style type="text/css">.st0{fill:#F9DF84;} .st1{fill:#2EAAE2;} .st2{opacity:0.51;} .st3{fill:#2C91AC;} .st4{fill:#C5CF83;} .st5{fill:#B0B573;} .st6{fill:#FFFFFF;} .st7{fill:#D9D9D9;} .st8{opacity:0.7;fill:#575756;} .st9{opacity:0.35;fill:url(#a);} .st10{opacity:0.65;fill:#575756;} .st11{fill:#ECECEC;} .st12{fill:#B1B1B1;} .st13{opacity:0.56;fill:#D9D9D9;}</style> <style type="text/css">.st0{fill:#00BFBA;} .st1{opacity:0.14;fill:#2B41E3;} .st2{opacity:0.28;} .st3{fill:#FFFFFF;} .st4{fill:#292685;} .st5{fill-rule:evenodd;clip-rule:evenodd;fill:#E6EEFF;} .st6{fill-rule:evenodd;clip-rule:evenodd;fill:#3071FF;} .st7{fill-rule:evenodd;clip-rule:evenodd;fill:#CFDEFF;} .st8{fill-rule:evenodd;clip-rule:evenodd;fill:#FFFFFF;} .st9{fill-rule:evenodd;clip-rule:evenodd;fill:#2A63E0;} .st10{fill-rule:evenodd;clip-rule:evenodd;fill:#F5B8B0;} .st11{fill:#F5F6F7;} .st12{fill:#FF85FF;} .st13{fill:#FF65FF;} .st14{fill:#F6F3EE;} .st15{fill:#013AD6;} .st16{fill-rule:evenodd;clip-rule:evenodd;fill:#142585;} .st17{fill-rule:evenodd;clip-rule:evenodd;fill:#E09F98;} .st18{fill:#142585;} .st19{fill:#FBFBFF;} .st20{fill:#0145FF;} .st21{opacity:0.32;} .st22{opacity:0.24;} .st23{fill:none;stroke:#FFFFFF;stroke-width:0.9459;stroke-linecap:round;stroke-linejoin:round;stroke-miterlimit:10;} .st24{opacity:0.28;fill:#FFFFFF;} .st25{opacity:0.29;fill:#2D69ED;} .st26{opacity:0.25;fill:#D6E3FF;} .st27{fill:#3075FF;} .st28{fill:#1D59DE;} .st29{fill:#A1BFFF;} .st30{fill:#F0F5FF;} .st31{fill:#3071FF;} .st32{fill:#C2D5FF;} .st33{fill:#548CFF;} .st34{fill:#2C67DE;} .st35{fill:#82AAFF;} .st36{fill:#275ACF;} .st37{fill:#D9E5FF;} .st38{fill:#BA4ABA;} .st39{fill:#BDD1FF;} .st40{fill:none;stroke:#292685;stroke-linecap:round;stroke-linejoin:round;stroke-miterlimit:10;} .st41{fill:#FFFFFF;stroke:#FFFFFF;stroke-width:1.4852;stroke-miterlimit:10;} .st42{fill:#ADC7FF;} .st43{fill:none;stroke:#FFFFFF;stroke-width:0.6164;stroke-linecap:round;stroke-linejoin:round;stroke-miterlimit:10;} .st44{fill:none;stroke:#FFFFFF;stroke-width:0.5688;stroke-linecap:round;stroke-linejoin:round;stroke-miterlimit:10;} .st45{opacity:0.33;fill:#2555C4;} .st46{fill:url(#a);} .st47{fill:#D6E3FF;} .st48{fill:none;stroke:#BFD3FF;stroke-width:1.0825;stroke-miterlimit:10;} .st49{fill:#E6EDFF;} .st50{fill-rule:evenodd;clip-rule:evenodd;fill:#82AAFF;} .st51{fill:#F0F0F0;}</style> </svg>