<?xml version="1.0" encoding="UTF-8"?>
<svg viewBox="0 0 292.90363 292.90363" xmlns="http://www.w3.org/2000/svg">
 <g transform="translate(-162.76 -181.53)">
  <path d="m190.23 189.03h237.97a19.969 19.969 0 0 1 19.969 19.969v237.97a19.969 19.969 0 0 1 -19.969 19.969h-237.97a19.969 19.969 0 0 1 -19.969 -19.969v-237.97a19.969 19.969 0 0 1 19.969 -19.969" fill="none" stroke="#000" stroke-width="15"/>
  <path d="m194.65 415.71h229.12v17.804h-229.12z"/>
  <path d="m191.09 262.93 2.7779 54.674 210.36 65.281c23.951 7.4325 32.978-26.55 9.0397-33.737l-77.377-23.411-23.12-99.08-28.676-3.6209-0.27766 86.955-59.144-18.272-11.112-22.223-22.476-6.566z"/>
  <path transform="translate(-16.879 -3.283)" d="m309.86 366.85c0 4.9513-4.0138 8.9651-8.9651 8.9651s-8.9651-4.0138-8.9651-8.9651 4.0138-8.9651 8.9651-8.9651 8.9651 4.0138 8.9651 8.9651z"/>
  <path transform="translate(4.2078 2.1466)" d="m309.86 366.85c0 4.9513-4.0138 8.9651-8.9651 8.9651s-8.9651-4.0138-8.9651-8.9651 4.0138-8.9651 8.9651-8.9651 8.9651 4.0138 8.9651 8.9651z"/>
 </g>
</svg>
