<?xml version="1.0" encoding="UTF-8"?>
<svg viewBox="0 0 292.90363 292.90363" xmlns="http://www.w3.org/2000/svg">
 <g transform="translate(-162.76 -181.53)">
  <path d="m190.23 189.03h237.97a19.969 19.969 0 0 1 19.969 19.969v237.97a19.969 19.969 0 0 1 -19.969 19.969h-237.97a19.969 19.969 0 0 1 -19.969 -19.969v-237.97a19.969 19.969 0 0 1 19.969 -19.969" fill="none" stroke="#000" stroke-width="15"/>
  <path d="m194.11 416h135.61v18.246h-135.61z"/>
  <path d="m202.56 337.78 38.757 29.847 166.45-105.02c18.951-11.957 1.1045-37.815-17.673-25.723l-60.817 38.979-106.91-17.883-19.104 17.38 85.09 26.74-46.742 29.575-21.547-5.3502-17.506 11.458z"/>
 </g>
</svg>
